<!DOCTYPE svg PUBLIC "-//W3C//DTD SVG 20010904//EN" "http://www.w3.org/TR/2001/REC-SVG-20010904/DTD/svg10.dtd">
<svg version="1.0" xmlns="http://www.w3.org/2000/svg" width="855px" height="741px" viewBox="0 0 8550 7410" preserveAspectRatio="xMidYMid meet">
<g id="layer101" fill="#0c2840" stroke="none">
 <path d="M2124 7387 c-9 -20 -265 -464 -1676 -2907 -233 -404 -430 -744 -438 -756 -11 -18 -9 -26 13 -60 14 -21 277 -475 584 -1009 750 -1300 739 -1280 1157 -2004 201 -348 366 -638 366 -642 0 -5 946 -9 2143 -9 l2144 0 203 353 c112 193 292 505 400 692 108 187 493 853 855 1480 361 627 661 1144 666 1150 12 12 12 48 0 61 -5 5 -203 347 -441 759 -238 413 -471 818 -519 900 -48 83 -330 570 -626 1083 l-538 932 -2141 0 -2141 0 -11 -23z m4833 -2077 c481 -833 886 -1536 900 -1562 l25 -46 -130 -224 c-128 -220 -880 -1522 -1400 -2425 l-267 -463 -510 0 c-280 0 -1093 -1 -1805 -1 l-1295 0 -747 1293 c-411 711 -814 1408 -895 1548 -81 140 -148 264 -148 275 0 15 1660 2909 1772 3088 l23 37 1801 -2 1801 -3 875 -1515z"/>
 <path d="M2343 6201 c-17 -11 -34 -24 -37 -30 -4 -6 -16 -113 -27 -238 -10 -125 -23 -253 -27 -283 l-7 -55 -80 -7 c-84 -8 -115 -26 -115 -68 0 -24 59 -30 331 -30 251 0 242 -3 230 66 -12 66 -14 67 -106 62 l-82 -6 -7 182 c-8 203 -25 407 -35 418 -3 4 -21 -1 -38 -11z"/>
 <path d="M4170 6190 c-66 -35 -146 -96 -172 -130 -15 -21 -17 -35 -12 -69 4 -23 13 -45 20 -48 8 -3 47 26 91 67 43 40 89 80 102 88 22 15 25 15 47 -12 49 -56 30 -80 -169 -221 -38 -26 -84 -63 -103 -81 l-35 -32 16 -39 c24 -57 89 -153 134 -197 38 -37 42 -38 95 -34 68 6 193 65 231 110 31 37 29 65 -8 138 -23 45 -59 73 -83 63 -18 -7 -42 -71 -50 -135 -7 -56 -16 -68 -51 -68 -37 0 -103 104 -86 135 5 7 53 52 108 100 116 101 165 158 165 192 0 62 -111 203 -159 203 -14 -1 -51 -14 -81 -30z"/>
 <path d="M5587 6186 c-18 -46 -57 -476 -57 -623 0 -108 8 -114 76 -65 60 44 67 57 72 136 l4 74 34 -10 c19 -5 62 -8 95 -6 58 3 64 5 93 41 29 36 31 44 30 115 0 58 -8 101 -33 177 -44 135 -50 140 -162 141 -67 1 -94 6 -108 18 -22 20 -37 20 -44 2z m182 -118 c26 -131 41 -241 36 -257 -11 -37 -41 -53 -83 -46 l-39 6 -7 123 c-8 150 -1 204 28 216 45 18 54 12 65 -42z"/>
 <path d="M3672 6178 c-34 -5 -84 -16 -110 -26 -44 -16 -48 -21 -60 -67 -19 -72 -11 -248 13 -299 25 -53 98 -86 203 -93 134 -8 170 29 171 179 1 37 -2 69 -7 72 -4 2 -61 12 -127 21 -66 9 -125 18 -132 20 -8 3 -8 15 -1 47 14 55 32 76 76 84 29 6 39 3 54 -16 10 -13 18 -38 18 -61 l0 -39 61 0 61 0 -7 33 c-10 47 -39 110 -59 126 -25 21 -83 28 -154 19z m64 -288 c41 -10 42 -11 34 -44 -12 -55 -17 -59 -80 -54 -77 6 -90 18 -90 83 l0 53 48 -14 c26 -7 66 -18 88 -24z"/>
 <path d="M6190 6180 c-82 -10 -158 -38 -172 -63 -7 -12 -13 -75 -15 -142 -5 -168 10 -209 89 -248 43 -22 75 -30 135 -34 105 -6 143 12 160 77 13 53 17 167 5 174 -5 3 -67 13 -138 22 -71 10 -130 19 -132 20 -7 5 21 90 35 106 9 10 31 21 50 24 45 9 64 -10 70 -70 l6 -46 58 0 59 0 -6 28 c-33 136 -75 168 -204 152z m15 -278 c63 -16 70 -21 73 -45 6 -47 -13 -67 -63 -67 -85 0 -122 34 -109 100 7 35 8 35 99 12z"/>
 <path d="M2933 6170 c-12 -5 -27 -18 -32 -29 -6 -11 -30 -135 -53 -276 -47 -288 -48 -283 30 -260 41 13 56 24 65 49 2 5 29 -1 60 -13 72 -26 107 -27 140 -1 23 18 28 19 65 6 22 -8 64 -17 93 -21 66 -8 99 12 117 73 17 57 15 98 -13 229 -40 191 -46 206 -85 225 -19 10 -37 14 -41 10 -3 -4 0 -86 7 -182 16 -227 16 -233 1 -254 -13 -17 -16 -17 -44 -2 l-31 15 -6 118 c-4 65 -9 153 -12 196 l-6 77 -37 0 c-62 0 -63 -2 -68 -176 -3 -88 -9 -176 -14 -196 -8 -33 -14 -38 -38 -38 -52 0 -55 12 -47 228 4 109 4 206 0 215 -7 19 -18 20 -51 7z"/>
 <path d="M4649 6156 c-100 -36 -107 -42 -136 -131 -24 -71 -27 -95 -28 -220 0 -120 3 -146 20 -180 20 -40 21 -40 81 -43 68 -3 160 22 219 61 40 26 44 53 20 135 -12 39 -23 56 -45 67 -27 14 -30 14 -39 -4 -6 -10 -13 -38 -16 -62 -15 -109 -15 -109 -39 -109 -27 0 -40 25 -61 114 -26 109 -16 256 20 286 11 9 20 3 45 -32 46 -65 70 -88 92 -88 19 0 20 5 16 63 -4 68 -42 161 -68 164 -8 1 -44 -9 -81 -21z"/>
 <path d="M2641 6132 c-14 -26 -31 -162 -31 -247 l0 -73 44 -17 c75 -29 81 -23 84 80 5 136 -6 233 -29 256 -24 24 -55 24 -68 1z"/>
 <path d="M5346 6141 c-11 -17 -36 -198 -36 -258 0 -55 3 -64 25 -79 13 -9 42 -18 64 -21 37 -5 41 -3 47 21 6 25 0 154 -12 264 -5 38 -12 57 -27 67 -24 17 -53 20 -61 6z"/>
 <path d="M4936 6102 c-11 -34 -36 -229 -42 -334 l-7 -108 29 0 c17 0 47 9 68 19 34 18 41 18 78 5 47 -16 86 -18 121 -5 26 10 61 75 72 134 8 41 -2 48 -76 60 l-37 5 -6 -44 c-11 -82 -43 -107 -85 -65 -15 15 -19 39 -23 166 -5 141 -6 149 -29 166 -30 23 -56 24 -63 1z"/>
 <path d="M2614 5726 c-28 -43 -15 -69 42 -88 86 -29 117 -1 79 71 -25 49 -93 58 -121 17z"/>
 <path d="M5313 5715 c-16 -34 -16 -36 4 -57 16 -15 38 -23 79 -26 l57 -5 -6 44 c-7 52 -35 79 -83 79 -29 0 -37 -5 -51 -35z"/>
 <path d="M5141 5266 c-12 -59 -15 -64 -42 -70 -16 -3 -44 -22 -62 -41 l-32 -35 -150 49 c-448 148 -888 148 -1340 0 -709 -232 -1246 -809 -1425 -1532 -47 -192 -61 -311 -62 -517 0 -352 67 -636 225 -960 107 -221 250 -413 442 -598 544 -524 1316 -722 2052 -527 355 94 706 299 965 562 120 122 178 192 260 313 184 272 300 571 353 910 3 19 9 95 15 168 40 570 -178 1179 -572 1597 l-76 81 29 144 c33 157 32 200 -2 236 -21 22 -22 28 -11 75 21 89 19 95 -40 107 -29 6 -151 31 -271 56 -120 26 -224 46 -231 46 -7 0 -18 -27 -25 -64z m-620 -365 c89 -18 239 -58 248 -66 2 -2 -17 -30 -42 -62 -55 -70 -64 -100 -43 -142 20 -37 44 -51 91 -51 29 0 45 9 85 46 28 26 50 43 50 38 0 -5 -31 -159 -70 -341 -76 -364 -77 -379 -19 -408 40 -21 80 -18 112 8 24 19 31 39 58 167 16 79 31 146 33 147 2 2 6 -7 10 -21 7 -30 52 -56 94 -56 37 0 80 40 89 81 l6 31 19 -31 c27 -41 75 -57 121 -37 29 12 39 24 53 64 l18 51 14 -28 c21 -45 101 -68 130 -39 14 14 28 -2 116 -132 321 -475 392 -1118 184 -1650 -212 -542 -687 -967 -1233 -1103 -178 -45 -241 -52 -460 -52 -224 0 -283 7 -470 55 -203 52 -425 158 -600 287 -119 88 -323 295 -408 413 -78 111 -201 350 -239 465 -127 387 -124 800 6 1182 30 88 76 193 85 192 3 0 119 -140 256 -310 138 -171 263 -323 278 -339 51 -53 92 -54 462 -21 181 17 331 28 333 26 3 -2 -41 -154 -97 -337 -56 -183 -101 -343 -101 -356 0 -12 6 -37 14 -55 17 -42 679 -856 714 -879 15 -10 46 -18 69 -18 51 0 20 -23 673 507 552 448 551 448 536 525 -8 43 -681 875 -728 901 -45 24 -141 22 -474 -9 -152 -14 -279 -24 -283 -22 -7 3 92 339 165 563 31 93 34 164 8 202 -16 26 -155 200 -394 493 -56 68 -98 126 -93 127 84 28 477 25 624 -6z m-420 -612 l65 -82 -104 -346 c-57 -190 -105 -347 -107 -349 -3 -3 -91 -12 -375 -37 -36 -4 -130 -12 -210 -19 -107 -10 -148 -10 -156 -2 -34 34 -534 657 -534 666 0 25 73 105 158 174 l94 76 551 0 552 0 66 -81z m1277 -1565 c34 -42 59 -80 57 -84 -6 -10 -924 -754 -933 -757 -4 -1 -134 155 -289 347 l-282 349 30 103 c17 57 33 106 36 111 2 4 300 7 662 7 l657 0 62 -76z"/>
 <path d="M1263 3 c4 -3 10 -3 14 0 3 4 0 7 -7 7 -7 0 -10 -3 -7 -7z"/>
 <path d="M1923 3 c4 -3 10 -3 14 0 3 4 0 7 -7 7 -7 0 -10 -3 -7 -7z"/>
 <path d="M6543 3 c4 -3 10 -3 14 0 3 4 0 7 -7 7 -7 0 -10 -3 -7 -7z"/>
 <path d="M6763 3 c4 -3 10 -3 14 0 3 4 0 7 -7 7 -7 0 -10 -3 -7 -7z"/>
 <path d="M6983 3 c4 -3 10 -3 14 0 3 4 0 7 -7 7 -7 0 -10 -3 -7 -7z"/>
 <path d="M7203 3 c4 -3 10 -3 14 0 3 4 0 7 -7 7 -7 0 -10 -3 -7 -7z"/>
 <path d="M7423 3 c4 -3 10 -3 14 0 3 4 0 7 -7 7 -7 0 -10 -3 -7 -7z"/>
 <path d="M7643 3 c4 -3 10 -3 14 0 3 4 0 7 -7 7 -7 0 -10 -3 -7 -7z"/>
 <path d="M7863 3 c4 -3 10 -3 14 0 3 4 0 7 -7 7 -7 0 -10 -3 -7 -7z"/>
 <path d="M8083 3 c4 -3 10 -3 14 0 3 4 0 7 -7 7 -7 0 -10 -3 -7 -7z"/>
 <path d="M8303 3 c4 -3 10 -3 14 0 3 4 0 7 -7 7 -7 0 -10 -3 -7 -7z"/>
 <path d="M8523 3 c4 -3 10 -3 14 0 3 4 0 7 -7 7 -7 0 -10 -3 -7 -7z"/>
 </g>
<g id="layer102" fill="#16609f" stroke="none">
 <path d="M2343 6201 c-17 -11 -34 -24 -37 -30 -4 -6 -16 -113 -27 -238 -10 -125 -23 -253 -27 -283 l-7 -55 -80 -7 c-84 -8 -115 -26 -115 -68 0 -24 59 -30 331 -30 251 0 242 -3 230 66 -12 66 -14 67 -106 62 l-82 -6 -7 182 c-8 203 -25 407 -35 418 -3 4 -21 -1 -38 -11z"/>
 <path d="M4170 6190 c-66 -35 -146 -96 -172 -130 -15 -21 -17 -35 -12 -69 4 -23 13 -45 20 -48 8 -3 47 26 91 67 43 40 89 80 102 88 22 15 25 15 47 -12 49 -56 30 -80 -169 -221 -38 -26 -84 -63 -103 -81 l-35 -32 16 -39 c24 -57 89 -153 134 -197 38 -37 42 -38 95 -34 68 6 193 65 231 110 31 37 29 65 -8 138 -23 45 -59 73 -83 63 -18 -7 -42 -71 -50 -135 -7 -56 -16 -68 -51 -68 -37 0 -103 104 -86 135 5 7 53 52 108 100 116 101 165 158 165 192 0 62 -111 203 -159 203 -14 -1 -51 -14 -81 -30z"/>
 <path d="M5587 6186 c-18 -46 -57 -476 -57 -623 0 -108 8 -114 76 -65 60 44 67 57 72 136 l4 74 34 -10 c19 -5 62 -8 95 -6 58 3 64 5 93 41 29 36 31 44 30 115 0 58 -8 101 -33 177 -44 135 -50 140 -162 141 -67 1 -94 6 -108 18 -22 20 -37 20 -44 2z m182 -118 c26 -131 41 -241 36 -257 -11 -37 -41 -53 -83 -46 l-39 6 -7 123 c-8 150 -1 204 28 216 45 18 54 12 65 -42z"/>
 <path d="M3672 6178 c-34 -5 -84 -16 -110 -26 -44 -16 -48 -21 -60 -67 -19 -72 -11 -248 13 -299 25 -53 98 -86 203 -93 134 -8 170 29 171 179 1 37 -2 69 -7 72 -4 2 -61 12 -127 21 -66 9 -125 18 -132 20 -8 3 -8 15 -1 47 14 55 32 76 76 84 29 6 39 3 54 -16 10 -13 18 -38 18 -61 l0 -39 61 0 61 0 -7 33 c-10 47 -39 110 -59 126 -25 21 -83 28 -154 19z m64 -288 c41 -10 42 -11 34 -44 -12 -55 -17 -59 -80 -54 -77 6 -90 18 -90 83 l0 53 48 -14 c26 -7 66 -18 88 -24z"/>
 <path d="M6190 6180 c-82 -10 -158 -38 -172 -63 -7 -12 -13 -75 -15 -142 -5 -168 10 -209 89 -248 43 -22 75 -30 135 -34 105 -6 143 12 160 77 13 53 17 167 5 174 -5 3 -67 13 -138 22 -71 10 -130 19 -132 20 -7 5 21 90 35 106 9 10 31 21 50 24 45 9 64 -10 70 -70 l6 -46 58 0 59 0 -6 28 c-33 136 -75 168 -204 152z m15 -278 c63 -16 70 -21 73 -45 6 -47 -13 -67 -63 -67 -85 0 -122 34 -109 100 7 35 8 35 99 12z"/>
 <path d="M2933 6170 c-12 -5 -27 -18 -32 -29 -6 -11 -30 -135 -53 -276 -47 -288 -48 -283 30 -260 41 13 56 24 65 49 2 5 29 -1 60 -13 72 -26 107 -27 140 -1 23 18 28 19 65 6 22 -8 64 -17 93 -21 66 -8 99 12 117 73 17 57 15 98 -13 229 -40 191 -46 206 -85 225 -19 10 -37 14 -41 10 -3 -4 0 -86 7 -182 16 -227 16 -233 1 -254 -13 -17 -16 -17 -44 -2 l-31 15 -6 118 c-4 65 -9 153 -12 196 l-6 77 -37 0 c-62 0 -63 -2 -68 -176 -3 -88 -9 -176 -14 -196 -8 -33 -14 -38 -38 -38 -52 0 -55 12 -47 228 4 109 4 206 0 215 -7 19 -18 20 -51 7z"/>
 <path d="M4649 6156 c-100 -36 -107 -42 -136 -131 -24 -71 -27 -95 -28 -220 0 -120 3 -146 20 -180 20 -40 21 -40 81 -43 68 -3 160 22 219 61 40 26 44 53 20 135 -12 39 -23 56 -45 67 -27 14 -30 14 -39 -4 -6 -10 -13 -38 -16 -62 -15 -109 -15 -109 -39 -109 -27 0 -40 25 -61 114 -26 109 -16 256 20 286 11 9 20 3 45 -32 46 -65 70 -88 92 -88 19 0 20 5 16 63 -4 68 -42 161 -68 164 -8 1 -44 -9 -81 -21z"/>
 <path d="M2641 6132 c-14 -26 -31 -162 -31 -247 l0 -73 44 -17 c75 -29 81 -23 84 80 5 136 -6 233 -29 256 -24 24 -55 24 -68 1z"/>
 <path d="M5346 6141 c-11 -17 -36 -198 -36 -258 0 -55 3 -64 25 -79 13 -9 42 -18 64 -21 37 -5 41 -3 47 21 6 25 0 154 -12 264 -5 38 -12 57 -27 67 -24 17 -53 20 -61 6z"/>
 <path d="M4936 6102 c-11 -34 -36 -229 -42 -334 l-7 -108 29 0 c17 0 47 9 68 19 34 18 41 18 78 5 47 -16 86 -18 121 -5 26 10 61 75 72 134 8 41 -2 48 -76 60 l-37 5 -6 -44 c-11 -82 -43 -107 -85 -65 -15 15 -19 39 -23 166 -5 141 -6 149 -29 166 -30 23 -56 24 -63 1z"/>
 <path d="M2614 5726 c-28 -43 -15 -69 42 -88 86 -29 117 -1 79 71 -25 49 -93 58 -121 17z"/>
 <path d="M5313 5715 c-16 -34 -16 -36 4 -57 16 -15 38 -23 79 -26 l57 -5 -6 44 c-7 52 -35 79 -83 79 -29 0 -37 -5 -51 -35z"/>
 <path d="M5141 5266 c-12 -59 -15 -64 -42 -70 -16 -3 -44 -22 -62 -41 l-32 -35 -150 49 c-448 148 -888 148 -1340 0 -709 -232 -1246 -809 -1425 -1532 -47 -192 -61 -311 -62 -517 0 -352 67 -636 225 -960 107 -221 250 -413 442 -598 544 -524 1316 -722 2052 -527 355 94 706 299 965 562 120 122 178 192 260 313 184 272 300 571 353 910 3 19 9 95 15 168 40 570 -178 1179 -572 1597 l-76 81 29 144 c33 157 32 200 -2 236 -21 22 -22 28 -11 75 21 89 19 95 -40 107 -29 6 -151 31 -271 56 -120 26 -224 46 -231 46 -7 0 -18 -27 -25 -64z m-620 -365 c89 -18 239 -58 248 -66 2 -2 -17 -30 -42 -62 -55 -70 -64 -100 -43 -142 20 -37 44 -51 91 -51 29 0 45 9 85 46 28 26 50 43 50 38 0 -5 -31 -159 -70 -341 -76 -364 -77 -379 -19 -408 40 -21 80 -18 112 8 24 19 31 39 58 167 16 79 31 146 33 147 2 2 6 -7 10 -21 7 -30 52 -56 94 -56 37 0 80 40 89 81 l6 31 19 -31 c27 -41 75 -57 121 -37 29 12 39 24 53 64 l18 51 14 -28 c21 -45 101 -68 130 -39 14 14 28 -2 116 -132 321 -475 392 -1118 184 -1650 -212 -542 -687 -967 -1233 -1103 -178 -45 -241 -52 -460 -52 -224 0 -283 7 -470 55 -203 52 -425 158 -600 287 -119 88 -323 295 -408 413 -78 111 -201 350 -239 465 -127 387 -124 800 6 1182 30 88 76 193 85 192 3 0 119 -140 256 -310 138 -171 263 -323 278 -339 51 -53 92 -54 462 -21 181 17 331 28 333 26 3 -2 -41 -154 -97 -337 -56 -183 -101 -343 -101 -356 0 -12 6 -37 14 -55 17 -42 679 -856 714 -879 15 -10 46 -18 69 -18 51 0 20 -23 673 507 552 448 551 448 536 525 -8 43 -681 875 -728 901 -45 24 -141 22 -474 -9 -152 -14 -279 -24 -283 -22 -7 3 92 339 165 563 31 93 34 164 8 202 -16 26 -155 200 -394 493 -56 68 -98 126 -93 127 84 28 477 25 624 -6z m-420 -612 l65 -82 -104 -346 c-57 -190 -105 -347 -107 -349 -3 -3 -91 -12 -375 -37 -36 -4 -130 -12 -210 -19 -107 -10 -148 -10 -156 -2 -34 34 -534 657 -534 666 0 25 73 105 158 174 l94 76 551 0 552 0 66 -81z m1277 -1565 c34 -42 59 -80 57 -84 -6 -10 -924 -754 -933 -757 -4 -1 -134 155 -289 347 l-282 349 30 103 c17 57 33 106 36 111 2 4 300 7 662 7 l657 0 62 -76z"/>
 <path d="M1263 3 c4 -3 10 -3 14 0 3 4 0 7 -7 7 -7 0 -10 -3 -7 -7z"/>
 <path d="M1923 3 c4 -3 10 -3 14 0 3 4 0 7 -7 7 -7 0 -10 -3 -7 -7z"/>
 <path d="M6543 3 c4 -3 10 -3 14 0 3 4 0 7 -7 7 -7 0 -10 -3 -7 -7z"/>
 <path d="M6763 3 c4 -3 10 -3 14 0 3 4 0 7 -7 7 -7 0 -10 -3 -7 -7z"/>
 <path d="M6983 3 c4 -3 10 -3 14 0 3 4 0 7 -7 7 -7 0 -10 -3 -7 -7z"/>
 <path d="M7203 3 c4 -3 10 -3 14 0 3 4 0 7 -7 7 -7 0 -10 -3 -7 -7z"/>
 <path d="M7423 3 c4 -3 10 -3 14 0 3 4 0 7 -7 7 -7 0 -10 -3 -7 -7z"/>
 <path d="M7643 3 c4 -3 10 -3 14 0 3 4 0 7 -7 7 -7 0 -10 -3 -7 -7z"/>
 <path d="M7863 3 c4 -3 10 -3 14 0 3 4 0 7 -7 7 -7 0 -10 -3 -7 -7z"/>
 <path d="M8083 3 c4 -3 10 -3 14 0 3 4 0 7 -7 7 -7 0 -10 -3 -7 -7z"/>
 <path d="M8303 3 c4 -3 10 -3 14 0 3 4 0 7 -7 7 -7 0 -10 -3 -7 -7z"/>
 <path d="M8523 3 c4 -3 10 -3 14 0 3 4 0 7 -7 7 -7 0 -10 -3 -7 -7z"/>
 </g>
<g id="layer103" fill="#8924b0" stroke="none">
 <path d="M2343 6201 c-17 -11 -34 -24 -37 -30 -4 -6 -16 -113 -27 -238 -10 -125 -23 -253 -27 -283 l-7 -55 -80 -7 c-84 -8 -115 -26 -115 -68 0 -24 59 -30 331 -30 251 0 242 -3 230 66 -12 66 -14 67 -106 62 l-82 -6 -7 182 c-8 203 -25 407 -35 418 -3 4 -21 -1 -38 -11z"/>
 <path d="M4170 6190 c-66 -35 -146 -96 -172 -130 -15 -21 -17 -35 -12 -69 4 -23 13 -45 20 -48 8 -3 47 26 91 67 43 40 89 80 102 88 22 15 25 15 47 -12 49 -56 30 -80 -169 -221 -38 -26 -84 -63 -103 -81 l-35 -32 16 -39 c24 -57 89 -153 134 -197 38 -37 42 -38 95 -34 68 6 193 65 231 110 31 37 29 65 -8 138 -23 45 -59 73 -83 63 -18 -7 -42 -71 -50 -135 -7 -56 -16 -68 -51 -68 -37 0 -103 104 -86 135 5 7 53 52 108 100 116 101 165 158 165 192 0 62 -111 203 -159 203 -14 -1 -51 -14 -81 -30z"/>
 <path d="M5587 6186 c-18 -46 -57 -476 -57 -623 0 -108 8 -114 76 -65 60 44 67 57 72 136 l4 74 34 -10 c19 -5 62 -8 95 -6 58 3 64 5 93 41 29 36 31 44 30 115 0 58 -8 101 -33 177 -44 135 -50 140 -162 141 -67 1 -94 6 -108 18 -22 20 -37 20 -44 2z m182 -118 c26 -131 41 -241 36 -257 -11 -37 -41 -53 -83 -46 l-39 6 -7 123 c-8 150 -1 204 28 216 45 18 54 12 65 -42z"/>
 <path d="M3672 6178 c-34 -5 -84 -16 -110 -26 -44 -16 -48 -21 -60 -67 -19 -72 -11 -248 13 -299 25 -53 98 -86 203 -93 134 -8 170 29 171 179 1 37 -2 69 -7 72 -4 2 -61 12 -127 21 -66 9 -125 18 -132 20 -8 3 -8 15 -1 47 14 55 32 76 76 84 29 6 39 3 54 -16 10 -13 18 -38 18 -61 l0 -39 61 0 61 0 -7 33 c-10 47 -39 110 -59 126 -25 21 -83 28 -154 19z m64 -288 c41 -10 42 -11 34 -44 -12 -55 -17 -59 -80 -54 -77 6 -90 18 -90 83 l0 53 48 -14 c26 -7 66 -18 88 -24z"/>
 <path d="M6190 6180 c-82 -10 -158 -38 -172 -63 -7 -12 -13 -75 -15 -142 -5 -168 10 -209 89 -248 43 -22 75 -30 135 -34 105 -6 143 12 160 77 13 53 17 167 5 174 -5 3 -67 13 -138 22 -71 10 -130 19 -132 20 -7 5 21 90 35 106 9 10 31 21 50 24 45 9 64 -10 70 -70 l6 -46 58 0 59 0 -6 28 c-33 136 -75 168 -204 152z m15 -278 c63 -16 70 -21 73 -45 6 -47 -13 -67 -63 -67 -85 0 -122 34 -109 100 7 35 8 35 99 12z"/>
 <path d="M2933 6170 c-12 -5 -27 -18 -32 -29 -6 -11 -30 -135 -53 -276 -47 -288 -48 -283 30 -260 41 13 56 24 65 49 2 5 29 -1 60 -13 72 -26 107 -27 140 -1 23 18 28 19 65 6 22 -8 64 -17 93 -21 66 -8 99 12 117 73 17 57 15 98 -13 229 -40 191 -46 206 -85 225 -19 10 -37 14 -41 10 -3 -4 0 -86 7 -182 16 -227 16 -233 1 -254 -13 -17 -16 -17 -44 -2 l-31 15 -6 118 c-4 65 -9 153 -12 196 l-6 77 -37 0 c-62 0 -63 -2 -68 -176 -3 -88 -9 -176 -14 -196 -8 -33 -14 -38 -38 -38 -52 0 -55 12 -47 228 4 109 4 206 0 215 -7 19 -18 20 -51 7z"/>
 <path d="M4649 6156 c-100 -36 -107 -42 -136 -131 -24 -71 -27 -95 -28 -220 0 -120 3 -146 20 -180 20 -40 21 -40 81 -43 68 -3 160 22 219 61 40 26 44 53 20 135 -12 39 -23 56 -45 67 -27 14 -30 14 -39 -4 -6 -10 -13 -38 -16 -62 -15 -109 -15 -109 -39 -109 -27 0 -40 25 -61 114 -26 109 -16 256 20 286 11 9 20 3 45 -32 46 -65 70 -88 92 -88 19 0 20 5 16 63 -4 68 -42 161 -68 164 -8 1 -44 -9 -81 -21z"/>
 <path d="M2641 6132 c-14 -26 -31 -162 -31 -247 l0 -73 44 -17 c75 -29 81 -23 84 80 5 136 -6 233 -29 256 -24 24 -55 24 -68 1z"/>
 <path d="M5346 6141 c-11 -17 -36 -198 -36 -258 0 -55 3 -64 25 -79 13 -9 42 -18 64 -21 37 -5 41 -3 47 21 6 25 0 154 -12 264 -5 38 -12 57 -27 67 -24 17 -53 20 -61 6z"/>
 <path d="M4936 6102 c-11 -34 -36 -229 -42 -334 l-7 -108 29 0 c17 0 47 9 68 19 34 18 41 18 78 5 47 -16 86 -18 121 -5 26 10 61 75 72 134 8 41 -2 48 -76 60 l-37 5 -6 -44 c-11 -82 -43 -107 -85 -65 -15 15 -19 39 -23 166 -5 141 -6 149 -29 166 -30 23 -56 24 -63 1z"/>
 <path d="M2614 5726 c-28 -43 -15 -69 42 -88 86 -29 117 -1 79 71 -25 49 -93 58 -121 17z"/>
 <path d="M5313 5715 c-16 -34 -16 -36 4 -57 16 -15 38 -23 79 -26 l57 -5 -6 44 c-7 52 -35 79 -83 79 -29 0 -37 -5 -51 -35z"/>
 <path d="M5141 5265 c-10 -48 -17 -65 -30 -65 -34 -1 -63 -30 -193 -189 -265 -326 -263 -323 -234 -380 20 -37 44 -51 91 -51 29 0 45 9 85 46 28 26 50 43 50 38 0 -5 -31 -159 -70 -341 -76 -364 -77 -379 -19 -408 40 -21 80 -18 112 8 24 19 31 39 58 167 16 79 31 146 33 147 2 2 6 -7 10 -21 7 -30 52 -56 94 -56 37 0 80 40 89 81 l6 31 19 -31 c27 -41 75 -57 121 -37 29 12 39 24 53 64 l18 51 14 -28 c25 -53 97 -67 145 -28 26 21 31 38 89 337 70 361 74 406 39 444 -23 25 -24 29 -13 77 21 89 19 95 -40 107 -29 6 -151 31 -271 56 -120 26 -224 46 -231 46 -7 0 -18 -27 -25 -65z"/>
 <path d="M1263 3 c4 -3 10 -3 14 0 3 4 0 7 -7 7 -7 0 -10 -3 -7 -7z"/>
 <path d="M1923 3 c4 -3 10 -3 14 0 3 4 0 7 -7 7 -7 0 -10 -3 -7 -7z"/>
 <path d="M6543 3 c4 -3 10 -3 14 0 3 4 0 7 -7 7 -7 0 -10 -3 -7 -7z"/>
 <path d="M6763 3 c4 -3 10 -3 14 0 3 4 0 7 -7 7 -7 0 -10 -3 -7 -7z"/>
 <path d="M6983 3 c4 -3 10 -3 14 0 3 4 0 7 -7 7 -7 0 -10 -3 -7 -7z"/>
 <path d="M7203 3 c4 -3 10 -3 14 0 3 4 0 7 -7 7 -7 0 -10 -3 -7 -7z"/>
 <path d="M7423 3 c4 -3 10 -3 14 0 3 4 0 7 -7 7 -7 0 -10 -3 -7 -7z"/>
 <path d="M7643 3 c4 -3 10 -3 14 0 3 4 0 7 -7 7 -7 0 -10 -3 -7 -7z"/>
 <path d="M7863 3 c4 -3 10 -3 14 0 3 4 0 7 -7 7 -7 0 -10 -3 -7 -7z"/>
 <path d="M8083 3 c4 -3 10 -3 14 0 3 4 0 7 -7 7 -7 0 -10 -3 -7 -7z"/>
 <path d="M8303 3 c4 -3 10 -3 14 0 3 4 0 7 -7 7 -7 0 -10 -3 -7 -7z"/>
 <path d="M8523 3 c4 -3 10 -3 14 0 3 4 0 7 -7 7 -7 0 -10 -3 -7 -7z"/>
 </g>

</svg>