<svg width="8550" height="7410.000000000001" xmlns="http://www.w3.org/2000/svg" preserveAspectRatio="xMidYMid meet">

 <g>
  <title>background</title>
  <rect fill="none" id="canvas_background" height="402" width="582" y="-1" x="-1"/>
 </g>
 <g>
  <title>Layer 1</title>
  <g fill="#16609f" id="layer102">
   <path id="svg_39" d="m5080.999758,5005.998962c-12,-59 -15,-64 -42,-70c-16,-3 -44,-22 -62,-41l-32,-35l-150,49c-448,148 -888,148 -1340,0c-709,-232 -1246,-809 -1425,-1532c-47,-192 -61,-311 -62,-517c0,-352 67,-636 225,-960c107,-221 250,-413 442,-598c544,-524 1316,-722 2052,-527c355,94 706,299 965,562c120,122 178,192 260,313c184,272 300,571 353,910c3,19 9,95 15,168c40,570 -178,1179 -572,1597l-76,81l29,144c33,157 32,200 -2,236c-21,22 -22,28 -11,75c21,89 19,95 -40,107c-29,6 -151,31 -271,56c-120,26 -224,46 -231,46c-7,0 -18,-27 -25,-64zm-620,-365c89,-18 239,-58 248,-66c2,-2 -17,-30 -42,-62c-55,-70 -64,-100 -43,-142c20,-37 44,-51 91,-51c29,0 45,9 85,46c28,26 50,43 50,38c0,-5 -31,-159 -70,-341c-76,-364 -77,-379 -19,-408c40,-21 80,-18 112,8c24,19 31,39 58,167c16,79 31,146 33,147c2,2 6,-7 10,-21c7,-30 52,-56 94,-56c37,0 80,40 89,81l6,31l19,-31c27,-41 75,-57 121,-37c29,12 39,24 53,64l18,51l14,-28c21,-45 101,-68 130,-39c14,14 28,-2 116,-132c321,-475 392,-1118 184,-1650c-212,-542 -687,-967 -1233,-1103c-178,-45 -241,-52 -460,-52c-224,0 -283,7 -470,55c-203,52 -425,158 -600,287c-119,88 -323,295 -408,413c-78,111 -201,350 -239,465c-127,387 -124,800 6,1182c30,88 76,193 85,192c3,0 119,-140 256,-310c138,-171 263,-323 278,-339c51,-53 92,-54 462,-21c181,17 331,28 333,26c3,-2 -41,-154 -97,-337c-56,-183 -101,-343 -101,-356c0,-12 6,-37 14,-55c17,-42 679,-856 714,-879c15,-10 46,-18 69,-18c51,0 20,-23 673,507c552,448 551,448 536,525c-8,43 -681,875 -728,901c-45,24 -141,22 -474,-9c-152,-14 -279,-24 -283,-22c-7,3 92,339 165,563c31,93 34,164 8,202c-16,26 -155,200 -394,493c-56,68 -98,126 -93,127c84,28 477,25 624,-6zm-420,-612l65,-82l-104,-346c-57,-190 -105,-347 -107,-349c-3,-3 -91,-12 -375,-37c-36,-4 -130,-12 -210,-19c-107,-10 -148,-10 -156,-2c-34,34 -534,657 -534,666c0,25 73,105 158,174l94,76l551,0l552,0l66,-81zm1277,-1565c34,-42 59,-80 57,-84c-6,-10 -924,-754 -933,-757c-4,-1 -134,155 -289,347l-282,349l30,103c17,57 33,106 36,111c2,4 300,7 662,7l657,0l62,-76z"/>
   <path id="svg_40" d="m1202.999758,-257.001038c4,-3 10,-3 14,0c3,4 0,7 -7,7c-7,0 -10,-3 -7,-7z"/>
   <path id="svg_41" d="m1862.999758,-257.001038c4,-3 10,-3 14,0c3,4 0,7 -7,7c-7,0 -10,-3 -7,-7z"/>
   <path id="svg_42" d="m6482.999758,-257.001038c4,-3 10,-3 14,0c3,4 0,7 -7,7c-7,0 -10,-3 -7,-7z"/>
   <path id="svg_43" d="m6702.999758,-257.001038c4,-3 10,-3 14,0c3,4 0,7 -7,7c-7,0 -10,-3 -7,-7z"/>
   <path id="svg_44" d="m6922.999758,-257.001038c4,-3 10,-3 14,0c3,4 0,7 -7,7c-7,0 -10,-3 -7,-7z"/>
   <path id="svg_45" d="m7142.999758,-257.001038c4,-3 10,-3 14,0c3,4 0,7 -7,7c-7,0 -10,-3 -7,-7z"/>
   <path id="svg_46" d="m7362.999758,-257.001038c4,-3 10,-3 14,0c3,4 0,7 -7,7c-7,0 -10,-3 -7,-7z"/>
   <path id="svg_47" d="m7582.999758,-257.001038c4,-3 10,-3 14,0c3,4 0,7 -7,7c-7,0 -10,-3 -7,-7z"/>
   <path id="svg_48" d="m7802.999758,-257.001038c4,-3 10,-3 14,0c3,4 0,7 -7,7c-7,0 -10,-3 -7,-7z"/>
   <path id="svg_49" d="m8022.999758,-257.001038c4,-3 10,-3 14,0c3,4 0,7 -7,7c-7,0 -10,-3 -7,-7z"/>
   <path id="svg_50" d="m8242.999758,-257.001038c4,-3 10,-3 14,0c3,4 0,7 -7,7c-7,0 -10,-3 -7,-7z"/>
   <path id="svg_51" d="m8462.999758,-257.001038c4,-3 10,-3 14,0c3,4 0,7 -7,7c-7,0 -10,-3 -7,-7z"/>
  </g>
  <g fill="#8924b0" id="layer103">
   <path stroke="null" id="svg_52" d="m3574.974027,6863.716727c-45.544397,-26.358095 -91.088794,-57.50857 -99.12604,-71.885713c-10.716329,-14.377143 -42.865315,-270.769519 -72.335219,-570.293323c-26.790822,-299.523804 -61.61889,-606.23618 -72.335219,-678.121893l-18.753575,-131.790474l-214.326574,-16.773333c-225.042903,-19.169523 -308.09445,-62.300951 -308.09445,-162.940949c0,-57.50857 158.065848,-71.885713 886.776199,-71.885713c672.449625,0 648.337886,-7.188571 616.1889,158.148569c-32.148986,158.148569 -37.50715,160.544759 -283.98271,148.563807l-219.684738,-14.377143l-18.753575,436.106659c-21.432657,486.426658 -66.977054,975.249507 -93.767876,1001.607601c-8.037247,9.584762 -56.260726,-2.39619 -101.805123,-26.358095z"/>
   <path stroke="null" stroke-width="36" id="svg_53" d="m4851.727808,6848.222767c-152.207563,-83.743443 -336.701579,-229.696301 -396.662134,-311.047074c-34.592628,-50.246066 -39.204978,-83.743443 -27.674102,-165.094216c9.224701,-55.031405 29.980278,-107.670141 46.123504,-114.84815c18.449402,-7.178009 108.390234,62.209415 209.861943,160.308876c99.165534,95.706792 205.249593,191.413584 235.22987,210.554942c50.735854,35.890047 57.65438,35.890047 108.390234,-28.712038c113.002585,-133.989509 69.185256,-191.413584 -389.743608,-528.780025c-87.634658,-62.209415 -193.718717,-150.738197 -237.536045,-193.806254l-80.716132,-76.565434l36.898803,-93.314122c55.348205,-136.382179 205.249593,-366.078479 309.027477,-471.35595c87.634658,-88.528783 96.859358,-90.921452 219.086644,-81.350773c156.819913,14.356019 445.091813,155.523537 532.726471,263.193678c71.491431,88.528783 66.879081,155.523537 -18.449402,330.188432c-53.04203,107.670141 -136.064337,174.664895 -191.412541,150.738197c-41.511154,-16.748689 -96.859358,-169.879556 -115.30876,-323.010423c-16.143226,-133.989509 -36.898803,-162.701546 -117.614935,-162.701546c-85.328482,0 -237.536045,248.837659 -198.331067,323.010423c11.530876,16.748689 122.227285,124.41883 249.066921,239.26698c267.516323,241.65965 380.518908,378.041828 380.518908,459.392601c0,148.345528 -255.985447,485.711969 -366.681856,485.711969c-32.286453,-2.39267 -117.614935,-33.497377 -186.800191,-71.780094z"/>
   <path id="svg_64" d="m5100.999838,5014.999002c-10,-48 -17,-65 -30,-65c-34,-1 -63,-30 -193,-189c-265,-326 -263,-323 -234,-380c20,-37 44,-51 91,-51c29,0 45,9 85,46c28,26 50,43 50,38c0,-5 -31,-159 -70,-341c-76,-364 -77,-379 -19,-408c40,-21 80,-18 112,8c24,19 31,39 58,167c16,79 31,146 33,147c2,2 6,-7 10,-21c7,-30 52,-56 94,-56c37,0 80,40 89,81l6,31l19,-31c27,-41 75,-57 121,-37c29,12 39,24 53,64l18,51l14,-28c25,-53 97,-67 145,-28c26,21 31,38 89,337c70,361 74,406 39,444c-23,25 -24,29 -13,77c21,89 19,95 -40,107c-29,6 -151,31 -271,56c-120,26 -224,46 -231,46c-7,0 -18,-27 -25,-65z"/>
   <path id="svg_65" d="m1222.999838,-247.000998c4,-3 10,-3 14,0c3,4 0,7 -7,7c-7,0 -10,-3 -7,-7z"/>
   <path id="svg_66" d="m1882.999838,-247.000998c4,-3 10,-3 14,0c3,4 0,7 -7,7c-7,0 -10,-3 -7,-7z"/>
   <path id="svg_67" d="m6502.999838,-247.000998c4,-3 10,-3 14,0c3,4 0,7 -7,7c-7,0 -10,-3 -7,-7z"/>
   <path id="svg_68" d="m6722.999838,-247.000998c4,-3 10,-3 14,0c3,4 0,7 -7,7c-7,0 -10,-3 -7,-7z"/>
   <path id="svg_69" d="m6942.999838,-247.000998c4,-3 10,-3 14,0c3,4 0,7 -7,7c-7,0 -10,-3 -7,-7z"/>
   <path id="svg_70" d="m7162.999838,-247.000998c4,-3 10,-3 14,0c3,4 0,7 -7,7c-7,0 -10,-3 -7,-7z"/>
   <path id="svg_71" d="m7382.999838,-247.000998c4,-3 10,-3 14,0c3,4 0,7 -7,7c-7,0 -10,-3 -7,-7z"/>
   <path id="svg_72" d="m7602.999838,-247.000998c4,-3 10,-3 14,0c3,4 0,7 -7,7c-7,0 -10,-3 -7,-7z"/>
   <path id="svg_73" d="m7822.999838,-247.000998c4,-3 10,-3 14,0c3,4 0,7 -7,7c-7,0 -10,-3 -7,-7z"/>
   <path id="svg_74" d="m8042.999838,-247.000998c4,-3 10,-3 14,0c3,4 0,7 -7,7c-7,0 -10,-3 -7,-7z"/>
   <path id="svg_75" d="m8262.999838,-247.000998c4,-3 10,-3 14,0c3,4 0,7 -7,7c-7,0 -10,-3 -7,-7z"/>
   <path id="svg_76" d="m8482.999838,-247.000998c4,-3 10,-3 14,0c3,4 0,7 -7,7c-7,0 -10,-3 -7,-7z"/>
  </g>
 </g>
</svg>